<svg version="1.1" id="Camada_1" xmlns="http://www.w3.org/2000/svg" xmlns:xlink="http://www.w3.org/1999/xlink" x="0px" y="0px"
	 viewBox="0 0 500 500" style="enable-background:new 0 0 500 500;" xml:space="preserve">
<style type="text/css">
	.st0{fill:transparent;}
	.st1{fill:#00A388;}
	.st2{clip-path:url(#SVGID_2_);}
</style>
<desc>Created with Fabric.js 3.6.3</desc>
<rect class="st0" width="500" height="500"/>
<g transform="matrix(1,0,0,1,300,261.03360886640905)">
	<path class="st1" d="M-117.9,16.2h-10.5v-1.3l4.1-0.9l1.1-29.5l-4.4-1.1v-1.3h8l12.5,29.4l12.8-29.4h7.8v1.3l-4.3,1L-90,14l3.6,0.9
		v1.3H-97v-1.3l3.8-0.8l-0.6-28.5l-13.5,30.9h-1.1l-13.1-31.1l-0.6,28.7l4.2,0.8V16.2z"/>
	<path class="st1" d="M-55.4,16.2h-24.6v-1.3l4-0.9v-29.7l-4-0.9v-1.3h23.1v8.4h-1L-60-16h-12.8v13.8h9.4l1.3-4.3h1V3.7h-1l-1.3-4.2
		h-9.4v14.9h14.2l2.2-7.1h1V16.2z"/>
	<path class="st1" d="M-36.8,16.2h-11.7v-1.3l4.1-0.9v-29.7l-4.1-0.9v-1.3h12c3.8,0,7,0.7,9.7,2c2.7,1.3,4.7,3.2,6.1,5.5
		c1.4,2.3,2.1,5,2.1,7.9l0,0c0,3.8-0.7,7.1-2.2,9.9c-1.5,2.8-3.6,4.9-6.3,6.4C-29.8,15.5-33,16.2-36.8,16.2L-36.8,16.2z M-36-16
		L-36-16h-5.2v30.4h5.4c2.8,0,5.3-0.6,7.3-1.9c2.1-1.3,3.7-3.1,4.9-5.3c1.2-2.3,1.7-4.9,1.7-7.9l0,0c0-3.1-0.5-5.7-1.6-8
		c-1.1-2.3-2.7-4.1-4.8-5.3C-30.4-15.4-33-16-36-16z"/>
	<path class="st1" d="M3.4,4h-14.2V1.9H3.4V4z"/>
	<path class="st1" d="M16.3,16.2H6.7v-1.3l2.7-0.6l13.2-32.4h1.1l13.1,32.3l3.1,0.7v1.3h-11v-1.3l4.4-0.7L28.9,3.3H15.9l-4.2,10.9
		l4.6,0.7V16.2z M22.3-13.4L16.6,1.5h11.6L22.3-13.4z"/>
	<path class="st1" d="M68.8,16.2H45.7v-1L64.3-16H49.5L47.3-9h-1v-8.9h21.9v1L49.6,14.4h16l2.2-7.6h1V16.2z"/>
	<path class="st1" d="M101.3,16.2H76.8v-1.3l4-0.9v-29.7l-4-0.9v-1.3h23.1v8.4h-1L96.7-16H83.9v13.8h9.4l1.3-4.3h1V3.7h-1l-1.3-4.2
		h-9.4v14.9h14.2l2.2-7.1h1V16.2z"/>
	<path class="st1" d="M118,16.7L118,16.7c-2,0-3.7-0.2-5.1-0.6c-1.4-0.4-2.9-1-4.4-1.8l0,0L108,6.4h0.9l2.9,6.6
		c1.2,0.9,2.3,1.4,3.4,1.7c1.1,0.3,2.2,0.4,3.4,0.4l0,0c2.3,0,4-0.6,5.2-1.8c1.2-1.2,1.8-2.9,1.8-5.1l0,0c0-1.7-0.4-2.9-1.2-3.9
		c-0.8-0.9-1.9-1.8-3.3-2.5c-1.4-0.7-3.1-1.6-5-2.5l0,0c-1.5-0.8-2.8-1.5-3.8-2.3c-1-0.8-1.8-1.6-2.3-2.6c-0.5-1-0.8-2.3-0.8-3.8
		l0,0c0-1.5,0.5-2.9,1.4-4.3c0.9-1.4,2.1-2.5,3.5-3.4c1.4-0.9,3-1.3,4.6-1.3l0,0c1.5,0,2.9,0.2,4.2,0.6c1.3,0.4,2.6,0.9,3.9,1.6l0,0
		l0.5,7.7h-0.9l-2.3-6.1c-0.9-0.8-1.7-1.4-2.5-1.7c-0.8-0.3-1.8-0.5-2.9-0.5l0,0c-2.1,0-3.7,0.6-4.8,1.8c-1.1,1.2-1.7,2.7-1.7,4.4
		l0,0c0,1.3,0.3,2.4,0.8,3.3c0.5,0.9,1.4,1.7,2.5,2.4c1.1,0.7,2.5,1.5,4.2,2.3l0,0c2.1,1,3.8,1.9,5.1,2.9c1.3,0.9,2.3,2,3,3.1
		c0.6,1.2,1,2.7,1,4.4l0,0c0,1.7-0.5,3.2-1.6,4.6c-1,1.3-2.4,2.4-4,3.1C121.5,16.3,119.8,16.7,118,16.7z"/>
</g>
<g transform="matrix(1.3937446250801313 0 0 1.3937446250801313 75.49999999999993 240.91316707544198)">
	<path class="st1" d="M-4.2,19.2c0.5-0.4,1-0.6,1.4-0.7c-0.4-0.4-0.7-0.9-0.7-1.6l0,0c0-0.7,0.1-1.1,0.2-1.5h-0.1l0,0
		c-0.2,0-1.2,0-2.2-0.4c-0.1,0.5-0.2,1.1-0.2,1.9l0,0c0,1.4,0.4,2.3,1,3C-4.7,19.6-4.4,19.4-4.2,19.2z M5.7,8
		c0.1,0.4,0.2,0.9,0.2,1.7l0,0c0,1.2-0.7,1.8-1.4,2.1c0.1,0.1,0.2,0.1,0.3,0.2c0.5,0.4,1,1,1.2,1.7c1.1-0.6,2.2-1.8,2.2-4l0,0
		c0-1-0.1-1.9-0.4-2.5C7.2,7.6,6.5,7.9,5.7,8z M-8.3,5.9c0.2-0.4,0.5-0.7,0.9-1c0.3-0.2,0.6-0.4,0.8-0.5C-7.2,4-7.8,3.3-7.8,2.2l0,0
		c0-0.9,0.3-1.5,0.8-1.9c-0.6,0-1.6-0.2-2.6-0.5c-0.3,0.6-0.5,1.4-0.5,2.3l0,0C-10,3.9-9.3,5.1-8.3,5.9z M3.9,21.8
		C3.7,22,3.4,22.1,3,22.2c0.2,0.4,0.4,0.9,0.4,1.9l0,0C3.4,25,3,25.6,2.5,26c0.1,0.1,0.3,0.1,0.5,0.2c0.3,0.2,0.7,0.5,1,1
		c0.6-0.7,1.1-1.6,1.1-3.1l0,0c0-1.1-0.2-2-0.4-2.7C4.4,21.5,4.1,21.7,3.9,21.8z M3.2-18.4v1.8c0,0.2-0.2,0.4-0.4,0.4h-5.8
		c-0.2,0-0.4-0.2-0.4-0.4v-1.8C-3.4-18.4,3.2-18.4,3.2-18.4z M-7.3-23.2c0,0-0.1-0.2-0.3-0.1c-2.1,1.1-7.5,1.2-6-7.7
		c0.1-0.3-0.1-0.5-0.4-0.6c-4-0.5-20.7-2.7-24.5-3.2c-0.5-0.1-0.6,0.1-0.5,0.4c0.7,1.3,2.7,4.4,4.5,4.5c2.1,0.1,14.4,0.6,16,0.6
		c0.4,0,0.2,0.5,0.1,0.5s-13-0.1-16-0.1c-0.4,0-0.5,0.2-0.3,0.5c0.8,1,2.7,3.1,4.1,2.9c1.8-0.3,11.4-1.2,12.8-1.3
		c0.3,0,0.3,0.5,0.1,0.5s-10.6,1.6-13,1.9c-0.3,0-0.3,0.2-0.1,0.4c0.9,0.7,2.9,2.2,4.5,1.8c2-0.5,8.2-2.4,9.4-2.7
		c0.3-0.1,0.3,0.4,0.1,0.4c-0.2,0.1-7.4,3-9.2,3.7c-0.3,0.1-0.3,0.2-0.1,0.4c0.9,0.5,3.3,1.9,4.3,1.3c1.1-0.7,5.1-3.2,6-3.8
		c0.2-0.1,0.5,0.2,0.3,0.4c-0.2,0.2-4.3,3.2-5.5,4.1c-0.2,0.1-0.1,0.3,0.1,0.4c0.9,0.2,2.9,0.6,4.2-0.6c1.4-1.2,2.9-2.6,3.4-3
		c0.2-0.2,0.6,0.1,0.4,0.2c-0.1,0.1-3.1,3.1-4.1,4c-0.2,0.2-0.1,0.3,0.2,0.4c0.9,0.1,3,0.3,4.1-1.1s1.7-2.3,2-2.6
		c0.2-0.2,0.6-0.1,0.5,0.1s-1.6,2.5-2.2,3.4c-0.1,0.2-0.1,0.3,0.2,0.3c0.9-0.1,3.2-0.4,3.8-1.2c0.8-1.1,1.7-0.7,2-0.3
		c0.3,0.4,0.4-0.2,0.4-0.2l0.3-1.7L-7.3-23.2z M-21-17.3c-0.6-0.2-0.9,0.2-0.9,0.2s-1.9,1.4-2.2,1.6c-0.3,0.2-0.2,0.4,0.2,0.5
		c1,0.2,2.9,0.5,4.2-0.7c0.2-0.1,0.3-0.3,0.5-0.5c0.1-0.1,0.4-0.4-0.1-0.6C-19.9-17-20.5-17.1-21-17.3 M-12-16.2
		c-0.3,0-0.4,0.1-0.5,0.2c-0.1,0.1-0.4,0.6-0.4,0.7c0,0.1-0.1,0.3,0.2,0.3c0.8-0.1,2.4-0.3,2.9-0.9c0.1-0.1,0-0.2-0.2-0.2
		C-10.6-16.1-11.3-16.2-12-16.2 M-39.5-33.7c-0.6-1-1.6-1-1.6-1l-4.5-0.7c-0.5-0.1-1-0.2-1.3-0.2c-0.5-0.1-0.7,0.1-0.5,0.5
		c0.8,1.4,2.8,4.9,4.8,5.1c0.7,0.1,2.4,0.2,4.6,0.4c0.6,0,0.8-0.5,0.6-0.7s-0.3-0.4-0.4-0.7L-39.5-33.7z M-16.8-16.4
		c-0.3-0.1-0.5,0.2-0.5,0.2s-1,1-1.2,1.2s-0.1,0.3,0.2,0.4c0.8,0.1,2.5,0.1,3.4-1c0.1-0.1,0.1-0.3-0.2-0.4
		C-15.7-16.2-16.5-16.4-16.8-16.4 M-26.2-19.4c-0.9-0.5-1.5-0.3-1.5-0.3s-3.5,1.2-3.9,1.4c-0.3,0.1-0.3,0.3,0,0.5
		c1.1,0.7,3.6,2.3,4.7,1.6c0.5-0.3,1.5-0.9,2.7-1.5c0.1-0.1,0.3-0.3,0-0.5C-25-18.6-25.6-19-26.2-19.4 M-35.2-27.7
		c-0.4-0.6-0.7-0.6-1.3-0.6c-0.5,0-5.4-0.2-5.7-0.2c-0.2,0-0.5,0.2-0.2,0.4c0.8,1.1,2.9,3.6,4.5,3.4c0.8-0.1,2.3-0.2,4.2-0.3
		c0.2,0,0.6-0.2,0.3-0.5C-34-26.2-34.6-27-35.2-27.7 M-31.1-23.2c-0.2-0.2-0.6-0.5-1.2-0.3c-0.7,0.1-4.5,0.9-4.9,1
		c-0.5,0.1-0.5,0.3-0.1,0.6c1,0.8,3.2,2.2,4.9,1.7c0.6-0.2,1.7-0.6,2.9-1c0.2-0.1,0.5-0.3,0.1-0.6C-30-22.3-30.6-22.7-31.1-23.2
		 M5.6-20.1l0.3,1.7c0,0,0.1,0.7,0.4,0.2c0.3-0.4,1.2-0.8,2,0.3c0.6,0.8,2.9,1.1,3.8,1.2c0.2,0,0.3-0.1,0.2-0.3
		c-0.6-0.9-2.1-3.3-2.2-3.4c-0.1-0.2,0.3-0.3,0.5-0.1c0.2,0.3,0.8,1.2,2,2.6c1.1,1.3,3.2,1.2,4.1,1.1c0.3,0,0.4-0.2,0.2-0.4
		c-1-0.9-3.9-3.9-4.1-4c-0.1-0.1,0.2-0.4,0.4-0.2c0.4,0.4,2,1.8,3.4,3c1.3,1.2,3.3,0.8,4.2,0.6c0.3-0.1,0.3-0.2,0.1-0.4
		c-1.2-0.9-5.3-4-5.5-4.1s0.1-0.5,0.3-0.4c0.9,0.5,4.9,3.1,6,3.8c0.9,0.6,3.4-0.7,4.3-1.3c0.2-0.1,0.2-0.3-0.1-0.4
		c-1.8-0.7-9.1-3.7-9.2-3.7c-0.2-0.1-0.1-0.5,0.1-0.4c1.1,0.3,7.4,2.2,9.4,2.7c1.6,0.5,3.7-1.1,4.5-1.8c0.3-0.2,0.2-0.4-0.1-0.4
		c-2.4-0.4-12.8-1.9-13-1.9s-0.2-0.5,0.1-0.5c1.4,0.1,11,1.1,12.8,1.3c1.4,0.2,3.4-1.9,4.1-2.9c0.2-0.3,0.1-0.5-0.3-0.5
		c-3,0-15.9,0.1-16,0.1s-0.3-0.5,0.1-0.5c1.5-0.1,13.8-0.5,16-0.6c1.8-0.1,3.8-3.2,4.5-4.5c0.2-0.3,0-0.5-0.5-0.4
		c-3.8,0.5-20.5,2.7-24.5,3.2c-0.3,0-0.4,0.3-0.4,0.6c1.5,8.9-3.9,8.7-6,7.7C7.3-23.2,7.2-23,7.2-23L5.6-20.1z M21.1-17.3
		c-0.6,0.2-1.2,0.3-1.7,0.5c-0.6,0.2-0.2,0.5-0.1,0.6c0.2,0.2,0.3,0.3,0.5,0.5c1.3,1.2,3.2,0.9,4.2,0.7c0.4-0.1,0.5-0.3,0.2-0.5
		S22-17.1,22-17.1S21.7-17.5,21.1-17.3 M12.1-16.2c-0.7,0.1-1.3,0.1-2,0.1c-0.2,0-0.3,0.1-0.2,0.2c0.5,0.6,2.1,0.8,2.9,0.9
		c0.3,0,0.2-0.2,0.2-0.3s-0.4-0.6-0.4-0.7C12.4-16.1,12.3-16.2,12.1-16.2 M37.8-31.1c-0.1,0.2-0.3,0.4-0.4,0.7
		c-0.2,0.3,0,0.7,0.6,0.7c2.2-0.1,3.8-0.3,4.6-0.4c2-0.2,4-3.7,4.8-5.1c0.2-0.4,0-0.6-0.5-0.5c-0.3,0.1-0.8,0.1-1.3,0.2l-4.5,0.7
		c0,0-1,0.1-1.6,1L37.8-31.1z M16.9-16.4c-0.3,0.1-1.1,0.3-1.7,0.3C15-16,15-15.8,15.1-15.7c0.9,1.1,2.6,1.1,3.4,1
		c0.3,0,0.3-0.2,0.2-0.4c-0.2-0.2-1.2-1.2-1.2-1.2S17.2-16.5,16.9-16.4 M26.3-19.4c-0.6,0.4-1.2,0.8-1.8,1.2c-0.3,0.2-0.2,0.4,0,0.5
		c1.1,0.6,2.2,1.2,2.7,1.5c1.1,0.6,3.6-0.9,4.7-1.6c0.3-0.2,0.2-0.4-0.1-0.5c-0.3-0.1-3.9-1.4-3.9-1.4S27.1-19.9,26.3-19.4
		 M35.3-27.7c-0.6,0.7-1.2,1.5-1.8,2.2c-0.2,0.3,0.1,0.5,0.3,0.5c1.9,0.1,3.4,0.3,4.2,0.3c1.6,0.2,3.7-2.3,4.5-3.4
		c0.2-0.3,0-0.5-0.2-0.4c-0.2,0-5.1,0.1-5.7,0.2C36-28.3,35.7-28.3,35.3-27.7 M31.2-23.2c-0.5,0.5-1.1,0.9-1.7,1.3
		c-0.4,0.3-0.1,0.6,0.1,0.6c1.2,0.4,2.3,0.8,2.9,1c1.7,0.5,3.9-0.9,4.9-1.7c0.4-0.3,0.3-0.6-0.1-0.6c-0.5-0.1-4.2-0.8-4.9-1
		C31.8-23.7,31.4-23.3,31.2-23.2 M5.6-24.6c0-3.1-2.5-5.6-5.6-5.6s-5.6,2.5-5.6,5.6c0,1.4,0.5,2.8,1.4,3.8v1.5
		c0,0.2,0.2,0.4,0.4,0.4h7.6c0.2,0,0.4-0.2,0.4-0.4v-1.5C5.1-21.8,5.6-23.2,5.6-24.6z M1.8,11.6l0.1-3.7H-2l0.1,3.7
		C-1.2,11.6,1.6,11.6,1.8,11.6z M1.3,25.9l0.1-3.7h-2.9l0.1,3.8C-1,25.9,1.3,25.9,1.3,25.9z M-1.5,18.7h3.1L1.6,15h-3.4L-1.5,18.7z
		 M-2,4.4H2l0.2-4.5h-4.5L-2,4.4z M2.5-3.8l0.4-11.9h-5.6l0.4,11.9H2.5z M10-13.2c-0.5-0.7-1.5-1.3-2.7-1.5c-1.9-0.4-3.7,0.2-4,1.3
		c-0.2,1.2,1.1,2,3.1,2.4c0.9,0.2,1.8,0.6,2.5,0.4c1.2,0.5,2.4,1.5,2.4,3.4l0,0C11.3-5,9.6-4,7.9-3.6C9-3.1,9.7-2.4,10.2-1.5
		c1.9-0.8,3.9-2.4,3.9-5.7l0,0C14.1-10.9,11.7-12.5,10-13.2z M5.6-13.4c-0.5,0-1-0.2-1-0.5c0-0.3,0.4-0.5,1-0.5s1,0.2,1,0.5
		C6.6-13.6,6.1-13.4,5.6-13.4z M5.6-3.2H3.8l0,0H0h-3.8c0,0,0,0-0.1,0h-0.5c0,0-7,0.5-7-3.9l0,0c0-2,1.2-3,2.4-3.5
		c0.7,0.2,1.6-0.2,2.6-0.4c1.9-0.4,3.3-1.2,3.1-2.4s-2-1.7-4-1.3c-1.2,0.3-2.2,0.8-2.7,1.5c-1.8,0.7-4.2,2.3-4.2,6l0,0
		c0,3.9,2.8,5.5,5,6.1l0,0c0,0,0,0,0.1,0S-8.8-1-8.6-1h0.1c1.2,0.3,2,0.3,2,0.3h0.1h1.9l0,0H2h2.2l0,0l0,0c0.4,0,3.3,0.1,3.3,2.8
		l0,0c0,2.9-3.4,2.8-3.4,2.8s-3.3,0-3.7,0H0.2h-0.5h-5.2l0,0l0,0c0,0,0,0-0.1,0l0,0c0,0-0.1,0-0.2,0c0,0,0,0-0.1,0s-0.1,0-0.2,0
		h-0.1c-0.1,0-0.1,0-0.2,0.1h-0.1c-0.2,0.1-0.4,0.2-0.7,0.4c0,0-0.1,0-0.1,0.1c-0.1,0.1-0.2,0.2-0.3,0.2l-0.1,0.1
		C-7.7,5.9-7.8,6-7.9,6.1c0,0,0,0-0.1,0.1l0,0c-0.4,0.7-0.8,1.7-0.8,3.3c0,2.8,1.6,3.9,3,4.4l0,0c0.1,0,0.2,0.1,0.4,0.1h0.1
		c0.1,0,0.2,0,0.3,0.1h0.1c0.1,0,0.2,0,0.2,0h0.1c0.1,0,0.2,0,0.3,0l0,0c0.1,0,0.2,0,0.2,0l0,0c0.1,0,0.1,0,0.2,0l0,0h3.4h1.1H2
		c0,0,0.9-0.1,0.9,2.4l0,0c0,2.3-2.6,2.4-2.9,2.4l0,0l0,0l0,0l0,0h-0.3H0h-1.9l0,0l0,0l0,0c0,0,0,0-0.1,0c0,0-0.1,0-0.2,0l0,0
		c-0.1,0-0.1,0-0.2,0c0,0,0,0-0.1,0s-0.1,0-0.2,0.1h-0.1c-0.1,0-0.2,0.1-0.3,0.1c0,0,0,0-0.1,0c-0.2,0.1-0.5,0.3-0.7,0.5
		c0,0,0,0-0.1,0.1C-4,19.8-4.1,19.9-4.2,20l0,0l0,0c-0.5,0.7-0.9,1.8-0.9,3.5c0,4.8,4.1,4.4,5,4.4c0.1,0,0.1,0,0.2,0h0.7l0,0
		c0.3,0,0.5,0,0.5,0s1.1,0.3,1.1,1.8C2.2,31.2,1,31.5,1,31.5l0,0l0.1-2.7h-2.3l0.1,2.6c0,0-1.3-0.3-1.4-1.8c0-0.4,0.1-0.8,0.2-1
		c-0.5-0.1-1-0.3-1.5-0.6C-3.9,28.4-4,28.9-4,29.6c0,2.2,2.1,3.2,2.9,3.2l0.1,2.4c0,0.2,0.2,0.5,0.9,0.5c0.8,0,0.9-0.3,0.9-0.5
		L1,32.8c0.9-0.1,3-1,3-3.2c0-3.5-3-3.6-3.3-3.6l0,0l0,0h-0.8h-0.2h-0.4c0,0-2.8,0.1-2.8-2.4s1.1-2.4,1.1-2.4H-1h0.7h0.8l0,0l0,0
		c0,0,0,0,0.1,0c0,0,0,0,0.1,0s0.4,0,0.6-0.1h0.1c0.1,0,0.2,0,0.3-0.1h0.1c0.1,0,0.2-0.1,0.3-0.1s0.1,0,0.2-0.1
		c0.1,0,0.2-0.1,0.3-0.1s0.1,0,0.2-0.1c0.1,0,0.2-0.1,0.3-0.2c0.1,0,0.1-0.1,0.2-0.1c0.1-0.1,0.2-0.2,0.4-0.2c0,0,0.1,0,0.1-0.1l0,0
		c0.9-0.7,1.6-1.8,1.6-3.7l0,0c0-1.6-0.3-2.6-0.8-3.3c0,0,0-0.1-0.1-0.1c-0.1-0.1-0.2-0.3-0.3-0.4c0,0,0,0,0-0.1
		c-0.1-0.1-0.3-0.2-0.4-0.3l0,0C3.7,12,3.6,12,3.5,11.9c0,0,0,0-0.1,0c-0.2-0.1-0.5-0.2-0.6-0.2c0,0,0,0-0.1,0c-0.1,0-0.1,0-0.2,0
		l0,0c-0.1,0-0.1,0-0.1,0l0,0l0,0c0,0-3.5,0-4.1,0h-1.3l0,0c-0.2,0-0.3,0-0.3,0s-3,0.1-3-2.4s0.9-2.4,0.9-2.4s0.5,0,1.2,0h3.8H2h1.5
		c0,0,0.1,0,0.3,0l0,0c0.1,0,0.2,0,0.3,0l0,0c0.1,0,0.2,0,0.4,0l0,0c0.8-0.1,1.8-0.3,2.8-0.8l0,0c1.4-0.7,2.6-2,2.6-4.4
		C10.1-3.3,5.6-3.2,5.6-3.2z M-5.5-14.4c0.5,0,1,0.2,1,0.5c0,0.3-0.4,0.5-1,0.5c-0.5,0-1-0.2-1-0.5C-6.5-14.2-6-14.4-5.5-14.4z"/>
</g>
<g transform="matrix(1,0,0,1,300,203.16)">
	<path d="M-138.7,11.7L-138.7,11.7c-2.2,0-4.2-0.5-6-1.5c-1.7-1-3.1-2.4-4.1-4.1c-1-1.7-1.5-3.7-1.5-5.9l0,0c0-1.8,0.3-3.5,1-5.1
		c0.6-1.6,1.5-2.9,2.6-4.1c1.1-1.2,2.4-2.1,3.9-2.7c1.5-0.6,3-1,4.7-1l0,0c1.7,0,3,0.2,4.1,0.5c1,0.4,2,0.8,3,1.2l0,0l0.2,5.6h-0.8
		l-1.4-4.1c-0.9-0.7-1.8-1.2-2.6-1.6c-0.8-0.3-1.7-0.5-2.7-0.5l0,0c-2,0-3.7,0.5-5.2,1.4c-1.5,0.9-2.7,2.2-3.5,3.8s-1.3,3.3-1.3,5.2
		l0,0c0,2.4,0.4,4.5,1.3,6.2c0.9,1.8,2.1,3.2,3.6,4.2c1.5,1,3.3,1.5,5.2,1.5l0,0c1.1,0,2.1-0.1,2.9-0.4c0.8-0.3,1.5-0.6,2.2-1l0,0
		l1.9-4.5h0.7l-0.3,5.4c-0.7,0.4-1.4,0.7-2.1,0.9c-0.7,0.3-1.5,0.5-2.5,0.6C-136.3,11.6-137.4,11.7-138.7,11.7z"/>
	<path d="M-107.7,11.3h-17.1v-0.9l2.8-0.6v-20.7l-2.8-0.6v-0.9h16.1v5.8h-0.7l-1.5-4.6h-8.9v9.6h6.6l0.9-3h0.7v7.2h-0.7l-0.9-2.9
		h-6.6v10.4h9.9l1.5-4.9h0.7V11.3z"/>
	<path d="M-95.3,11.3h-7.5v-0.9l2.8-0.6v-20.7l-2.8-0.6v-0.9h4.7l14.7,19.9v-18.4l-3.1-0.6v-0.9h7.3v0.9l-2.8,0.6v22.4h-0.8
		L-98.6-9.4V9.7l3.3,0.7V11.3z"/>
	<path d="M-60.3,11.3h-9.4v-0.9l3.6-0.6v-21h-7l-1.5,5.3h-0.7v-6.5h20.7v6.5h-0.7l-1.5-5.3h-7v21l3.6,0.6V11.3z"/>
	<path d="M-42.9,11.3h-7.7v-0.9l2.9-0.6v-20.7l-2.9-0.6v-0.9h7.1c2.5,0,4.5,0.5,6,1.6c1.4,1,2.2,2.5,2.2,4.3l0,0
		c0,1.4-0.5,2.7-1.4,3.7c-0.9,1-2.1,1.8-3.7,2.2l0,0l7,10.6l2.4,0.5v0.9h-4.2L-42.5,0h-3.1v9.7l2.7,0.6V11.3z M-43.3-11.2
		L-43.3-11.2h-2.3v10h2.6c1.5,0,2.8-0.5,3.8-1.4c1-0.9,1.5-2.1,1.5-3.5l0,0c0-1.6-0.5-2.8-1.5-3.7C-40.3-10.7-41.6-11.2-43.3-11.2z"
		/>
	<path d="M-17.5,11.7L-17.5,11.7c-2.2,0-4.1-0.5-5.8-1.6c-1.7-1.1-3-2.5-4-4.4c-1-1.8-1.5-3.9-1.5-6.3l0,0c0-2.4,0.5-4.5,1.5-6.3
		c1-1.8,2.3-3.3,4-4.4c1.7-1.1,3.6-1.6,5.8-1.6l0,0c2.2,0,4.1,0.5,5.8,1.6c1.7,1.1,3,2.5,4,4.4c1,1.8,1.5,3.9,1.5,6.3l0,0
		c0,2.4-0.5,4.5-1.5,6.3c-1,1.8-2.3,3.3-4,4.4C-13.4,11.1-15.3,11.7-17.5,11.7z M-16.8,10.6L-16.8,10.6c1.6,0,3.1-0.4,4.3-1.2
		s2.2-2,2.9-3.5c0.7-1.5,1.1-3.3,1.1-5.3l0,0c0-2.5-0.4-4.6-1.3-6.5c-0.9-1.9-2-3.3-3.5-4.3s-3.1-1.5-4.9-1.5l0,0
		c-1.6,0-3.1,0.4-4.4,1.2c-1.3,0.8-2.3,2-3,3.5c-0.7,1.5-1.1,3.3-1.1,5.3l0,0c0,2.5,0.4,4.6,1.3,6.5c0.9,1.9,2.1,3.3,3.5,4.3
		C-20.2,10.1-18.6,10.6-16.8,10.6z M0,0"/>
	<path d="M14.8,11.3H7.5v-0.9l2.8-0.6l0.8-20.6L8-11.6v-0.9h5.6L22.3,8l8.9-20.5h5.5v0.9l-3,0.7l0.6,20.6l2.5,0.6v0.9h-7.4v-0.9
		l2.7-0.6L31.7-10l-9.4,21.5h-0.8l-9.1-21.7l-0.4,20l2.9,0.6V11.3z"/>
	<path d="M58.5,11.3H41.3v-0.9l2.8-0.6v-20.7l-2.8-0.6v-0.9h16.1v5.8h-0.7l-1.5-4.6h-8.9v9.6h6.6l0.9-3h0.7v7.2h-0.7l-0.9-2.9h-6.6
		v10.4h9.9l1.5-4.9h0.7V11.3z M51-14.3h-0.5l3.4-5.5h1.7c0,0.4-0.1,0.7-0.2,1.1c-0.2,0.3-0.5,0.8-1,1.2l0,0L51-14.3z"/>
	<path d="M71.4,11.3h-8.1v-0.9l2.9-0.6v-20.7l-2.9-0.6v-0.9h8.4c2.6,0,4.9,0.5,6.8,1.4c1.9,0.9,3.3,2.2,4.3,3.9
		c1,1.6,1.5,3.5,1.5,5.5l0,0c0,2.7-0.5,5-1.6,6.9c-1,1.9-2.5,3.4-4.4,4.5C76.3,10.8,74.1,11.3,71.4,11.3L71.4,11.3z M71.9-11.2
		L71.9-11.2h-3.6v21.2h3.8c2,0,3.7-0.5,5.1-1.4c1.4-0.9,2.6-2.1,3.4-3.7c0.8-1.6,1.2-3.4,1.2-5.5l0,0c0-2.1-0.4-4-1.2-5.6
		c-0.8-1.6-1.9-2.8-3.4-3.7C75.8-10.8,74.1-11.2,71.9-11.2z"/>
	<path d="M97,11.3h-7.8v-0.9L92,9.8v-20.7l-2.8-0.6v-0.9H97v0.9l-2.8,0.6V9.8l2.8,0.6V11.3z"/>
	<path d="M113.7,11.7L113.7,11.7c-2.2,0-4.2-0.5-6-1.5c-1.7-1-3.1-2.4-4.1-4.1c-1-1.7-1.5-3.7-1.5-5.9l0,0c0-1.8,0.3-3.5,1-5.1
		c0.6-1.6,1.5-2.9,2.6-4.1c1.1-1.2,2.4-2.1,3.9-2.7c1.5-0.6,3-1,4.7-1l0,0c1.7,0,3,0.2,4.1,0.5c1,0.4,2,0.8,3,1.2l0,0l0.2,5.6h-0.8
		l-1.4-4.1c-0.9-0.7-1.8-1.2-2.7-1.6c-0.8-0.3-1.7-0.5-2.7-0.5l0,0c-2,0-3.7,0.5-5.2,1.4c-1.5,0.9-2.7,2.2-3.5,3.8S104-3.2,104-1.4
		l0,0c0,2.4,0.4,4.5,1.3,6.2c0.9,1.8,2.1,3.2,3.6,4.2c1.5,1,3.3,1.5,5.2,1.5l0,0c1.1,0,2.1-0.1,2.8-0.4c0.8-0.3,1.5-0.6,2.2-1l0,0
		l1.9-4.5h0.7l-0.3,5.4c-0.7,0.4-1.4,0.7-2.1,0.9c-0.7,0.3-1.5,0.5-2.5,0.6C116.1,11.6,115,11.7,113.7,11.7z"/>
	<path d="M139,11.7L139,11.7c-2.2,0-4.1-0.5-5.8-1.6c-1.7-1.1-3-2.5-4-4.4c-1-1.8-1.5-3.9-1.5-6.3l0,0c0-2.4,0.5-4.5,1.5-6.3
		c1-1.8,2.3-3.3,4-4.4c1.7-1.1,3.6-1.6,5.8-1.6l0,0c2.2,0,4.1,0.5,5.8,1.6c1.7,1.1,3,2.5,4,4.4c1,1.8,1.5,3.9,1.5,6.3l0,0
		c0,2.4-0.5,4.5-1.5,6.3c-1,1.8-2.3,3.3-4,4.4C143.1,11.1,141.2,11.7,139,11.7z M139.8,10.6L139.8,10.6c1.6,0,3.1-0.4,4.3-1.2
		c1.3-0.8,2.2-2,2.9-3.5c0.7-1.5,1.1-3.3,1.1-5.3l0,0c0-2.5-0.4-4.6-1.3-6.5c-0.9-1.9-2-3.3-3.5-4.3c-1.5-1-3.1-1.5-4.9-1.5l0,0
		c-1.6,0-3.1,0.4-4.3,1.2c-1.3,0.8-2.3,2-3,3.5S130-3.8,130-1.8l0,0c0,2.5,0.4,4.6,1.3,6.5c0.9,1.9,2.1,3.3,3.5,4.3
		C136.3,10.1,137.9,10.6,139.8,10.6z"/>
</g>
<g transform="matrix(3.622913596946791 0 0 -0.6613327980340554 300 223.76460481099684)">
	<g>
		<g>
			<defs>
				<rect id="SVGID_1_" x="-148.5" y="1.1" width="297" height="0.5"/>
			</defs>
			<clipPath id="SVGID_2_">
				<use xlink:href="#SVGID_1_"  style="overflow:visible;"/>
			</clipPath>
			<g transform="matrix(1 -2.4493e-16 -2.4493e-16 -1 -1.6608910891089863 0.644059405940649)" class="st2">
				<path d="M41.7-1h-83.4c-0.6,0-1,0.4-1,1s0.4,1,1,1h83.3c0.6,0,1-0.4,1-1S42.2-1,41.7-1z"/>
			</g>
		</g>
	</g>
</g>
</svg>
